<?xml version="1.0" encoding="UTF-8" standalone="no" ?>
<!DOCTYPE svg PUBLIC "-//W3C//DTD SVG 1.1//EN" "http://www.w3.org/Graphics/SVG/1.1/DTD/svg11.dtd">
<svg xmlns="http://www.w3.org/2000/svg" xmlns:xlink="http://www.w3.org/1999/xlink" version="1.1" width="1280" height="1024" viewBox="0 0 1280 1024" xml:space="preserve">
<desc>Created with Fabric.js 4.4.0</desc>
<defs>
</defs>
<g transform="matrix(1 0 0 1 640 512)" id="background-logo"  >
<rect style="stroke: none; stroke-width: 0; stroke-dasharray: none; stroke-linecap: butt; stroke-dashoffset: 0; stroke-linejoin: miter; stroke-miterlimit: 4; fill: rgb(255,255,255); fill-opacity: 0; fill-rule: nonzero; opacity: 1;"  paint-order="stroke"  x="-640" y="-512" rx="0" ry="0" width="1280" height="1024" />
</g>
<g transform="matrix(1.9211538461538462 0 0 1.9211538461538462 640 428.2911114967636)" id="logo-logo"  >
<g style=""  paint-order="stroke"   >
		<g transform="matrix(0.21930036655864127 0 0 -0.21930036655864127 -66.02037700298848 72.38767909596908)"  >
<path style="stroke: none; stroke-width: 1; stroke-dasharray: none; stroke-linecap: butt; stroke-dashoffset: 0; stroke-linejoin: miter; stroke-miterlimit: 4; fill: rgb(13,56,135); fill-rule: nonzero; opacity: 1;"  paint-order="stroke"  transform=" translate(-1776.1999999999998, -3655.6)" d="M 1651.2 3865.6 L 1501.2 3865.6 L 1501.2 3543.46 C 1501.2 3521.07 1508.17 3498.86 1522.56 3481.7 C 1542.72 3457.64 1567.8799999999999 3445.6 1598.02 3445.6 L 2051.2 3445.6 L 2051.2 3545.6 L 1651.1999999999998 3545.6 L 1651.1999999999998 3865.6" stroke-linecap="round" />
</g>
		<g transform="matrix(0.21930036655864127 0 0 -0.21930036655864127 67.7132071825522 67.30918855727754)"  >
<path style="stroke: none; stroke-width: 1; stroke-dasharray: none; stroke-linecap: butt; stroke-dashoffset: 0; stroke-linejoin: miter; stroke-miterlimit: 4; fill: rgb(13,56,135); fill-rule: nonzero; opacity: 1;"  paint-order="stroke"  transform=" translate(-2386.2, -3680.6)" d="M 2511.2 3545.6 L 2111.2 3545.6 L 2111.2 3445.6 L 2562.22 3445.6 C 2587.77 3445.6 2612.79 3454.98 2630.99 3472.93 C 2651.1 3492.7999999999997 2661.2 3517.0299999999997 2661.2 3545.6 L 2661.2 3915.6 L 2511.2 3915.6 L 2511.2 3545.6" stroke-linecap="round" />
</g>
		<g transform="matrix(0.21930036655864127 0 0 -0.21930036655864127 67.7132071825522 -78.2742068852096)"  >
<path style="stroke: none; stroke-width: 1; stroke-dasharray: none; stroke-linecap: butt; stroke-dashoffset: 0; stroke-linejoin: miter; stroke-miterlimit: 4; fill: rgb(79,134,238); fill-rule: nonzero; opacity: 1;"  paint-order="stroke"  transform=" translate(-2386.2, -4340.6)" d="M 2661.2 4155.6 L 2511.2 4155.6 L 2511.2 4435.6 L 2111.2 4435.6 L 2111.2 4525.6 L 2606.58 4525.6 C 2615.5499999999997 4521.05 2623.87 4514.9400000000005 2631.54 4507.27 L 2632.87 4501.72 C 2651.75 4482.83 2661.2 4459.990000000001 2661.2 4433.22 L 2661.2 4155.6" stroke-linecap="round" />
</g>
		<g transform="matrix(0.21930036655864127 0 0 -0.21930036655864127 -66.02037700298848 -71.5028861669544)"  >
<path style="stroke: none; stroke-width: 1; stroke-dasharray: none; stroke-linecap: butt; stroke-dashoffset: 0; stroke-linejoin: miter; stroke-miterlimit: 4; fill: rgb(79,134,238); fill-rule: nonzero; opacity: 1;"  paint-order="stroke"  transform=" translate(-1776.1999999999998, -4315.6)" d="M 1651.2 4105.6 L 1501.2 4105.6 L 1501.2 4433.22 C 1501.2 4459.990000000001 1510.65 4482.83 1529.53 4501.72 L 1528.23 4507.27 C 1535.9 4514.9400000000005 1544.22 4521.05 1553.19 4525.6 L 2051.2 4525.6 L 2051.2 4435.6 L 1651.1999999999998 4435.6 L 1651.1999999999998 4105.6" stroke-linecap="round" />
</g>
		<g transform="matrix(0.21930036655864127 0 0 -0.21930036655864127 0 -7.175339343529799)"  >
<path style="stroke: none; stroke-width: 1; stroke-dasharray: none; stroke-linecap: butt; stroke-dashoffset: 0; stroke-linejoin: miter; stroke-miterlimit: 4; fill: rgb(7,31,74); fill-rule: nonzero; opacity: 1;"  paint-order="stroke"  transform=" translate(-2076.2, -4021.3399999999997)" d="M 2345.4 4065.6 L 2201.01 4329.74 L 1947.7800000000002 3886.2699999999995 L 1846.64 4025.5999999999995 L 1311.2 4025.5999999999995 L 1311.2 3945.5999999999995 L 1790.93 3945.5999999999995 L 1957.8000000000002 3712.9399999999996 L 2199.96 4137.08 L 2282.67 3985.6 L 2841.2 3985.6 L 2841.2 4065.6 L 2345.3999999999996 4065.6" stroke-linecap="round" />
</g>
</g>
</g>
<g transform="matrix(1.9211538461538462 0 0 1.9211538461538462 641.0988645241478 763.8404667967694)" id="text-logo"  >
<g style=""  paint-order="stroke"   >
		<g transform="matrix(1 0 0 1 5.684342e-14 0)" id="text-logo-path-0"  >
<path style="stroke: rgb(7,31,74); stroke-width: 2; stroke-dasharray: none; stroke-linecap: butt; stroke-dashoffset: 0; stroke-linejoin: miter; stroke-miterlimit: 4; fill: rgb(7,31,74); fill-rule: nonzero; opacity: 1;"  paint-order="stroke"  transform=" translate(-172.775, 15.419999999999998)" d="M 12.49 -18.61 L 12.49 -18.61 L 12.49 0 L 3.56 0 L 3.56 -32.18 L 12.07 -32.18 L 12.07 -26.5 L 12.45 -26.5 Q 13.51 -29.31 16.03 -30.96 Q 18.54 -32.6 22.13 -32.6 L 22.13 -32.6 Q 25.48 -32.6 27.97 -31.13 Q 30.46 -29.67 31.85 -26.95 Q 33.23 -24.24 33.23 -20.49 L 33.23 -20.49 L 33.23 0 L 24.3 0 L 24.3 -18.9 Q 24.32 -21.85 22.8 -23.52 Q 21.27 -25.18 18.58 -25.18 L 18.58 -25.18 Q 16.78 -25.18 15.41 -24.41 Q 14.04 -23.63 13.27 -22.16 Q 12.51 -20.68 12.49 -18.61 Z M 54.91 0.63 L 54.91 0.63 Q 49.95 0.63 46.38 -1.39 Q 42.8 -3.42 40.88 -7.13 Q 38.95 -10.85 38.95 -15.94 L 38.95 -15.94 Q 38.95 -20.91 40.88 -24.66 Q 42.8 -28.41 46.31 -30.51 Q 49.82 -32.6 54.56 -32.6 L 54.56 -32.6 Q 57.74 -32.6 60.5 -31.58 Q 63.25 -30.57 65.32 -28.54 Q 67.38 -26.5 68.53 -23.43 Q 69.69 -20.37 69.69 -16.26 L 69.69 -16.26 L 69.69 -13.81 L 42.51 -13.81 L 42.51 -19.34 L 61.28 -19.34 Q 61.28 -21.27 60.45 -22.75 Q 59.61 -24.24 58.13 -25.09 Q 56.65 -25.94 54.7 -25.94 L 54.7 -25.94 Q 52.67 -25.94 51.11 -25.01 Q 49.55 -24.07 48.67 -22.51 Q 47.79 -20.95 47.77 -19.05 L 47.77 -19.05 L 47.77 -13.79 Q 47.77 -11.4 48.66 -9.66 Q 49.55 -7.92 51.19 -6.98 Q 52.82 -6.03 55.06 -6.03 L 55.06 -6.03 Q 56.55 -6.03 57.78 -6.45 Q 59.02 -6.87 59.9 -7.71 Q 60.78 -8.55 61.24 -9.76 L 61.24 -9.76 L 69.5 -9.22 Q 68.87 -6.24 66.93 -4.03 Q 64.99 -1.82 61.94 -0.6 Q 58.9 0.63 54.91 0.63 Z M 91.04 0 L 81.61 0 L 72.85 -32.18 L 81.88 -32.18 L 86.87 -10.56 L 87.16 -10.56 L 92.36 -32.18 L 101.22 -32.18 L 106.5 -10.69 L 106.77 -10.69 L 111.67 -32.18 L 120.68 -32.18 L 111.94 0 L 102.5 0 L 96.96 -20.24 L 96.57 -20.24 L 91.04 0 Z M 152.19 -23 L 152.19 -23 L 144.02 -22.5 Q 143.81 -23.55 143.12 -24.4 Q 142.43 -25.25 141.31 -25.76 Q 140.19 -26.27 138.64 -26.27 L 138.64 -26.27 Q 136.56 -26.27 135.14 -25.4 Q 133.71 -24.53 133.71 -23.09 L 133.71 -23.09 Q 133.71 -21.94 134.64 -21.14 Q 135.56 -20.34 137.8 -19.86 L 137.8 -19.86 L 143.62 -18.69 Q 148.32 -17.73 150.62 -15.59 Q 152.93 -13.45 152.93 -9.97 L 152.93 -9.97 Q 152.93 -6.81 151.07 -4.42 Q 149.22 -2.03 146 -0.7 Q 142.79 0.63 138.6 0.63 L 138.6 0.63 Q 132.21 0.63 128.42 -2.04 Q 124.64 -4.71 123.99 -9.32 L 123.99 -9.32 L 132.77 -9.78 Q 133.17 -7.84 134.7 -6.82 Q 136.23 -5.8 138.62 -5.8 L 138.62 -5.8 Q 140.96 -5.8 142.4 -6.72 Q 143.83 -7.63 143.85 -9.07 L 143.85 -9.07 Q 143.83 -10.29 142.83 -11.07 Q 141.82 -11.86 139.73 -12.28 L 139.73 -12.28 L 134.15 -13.39 Q 129.44 -14.33 127.15 -16.66 Q 124.85 -18.98 124.85 -22.59 L 124.85 -22.59 Q 124.85 -25.69 126.54 -27.93 Q 128.22 -30.17 131.29 -31.39 Q 134.36 -32.6 138.49 -32.6 L 138.49 -32.6 Q 144.59 -32.6 148.1 -30.02 Q 151.61 -27.45 152.19 -23 Z M 154.96 0 L 183.14 0 L 183.14 6.77 L 154.96 6.77 L 154.96 0 Z M 198.29 12.07 L 189.36 12.07 L 189.36 -32.18 L 198.16 -32.18 L 198.16 -26.78 L 198.56 -26.78 Q 199.15 -28.08 200.27 -29.43 Q 201.39 -30.78 203.2 -31.69 Q 205.01 -32.6 207.72 -32.6 L 207.72 -32.6 Q 211.24 -32.6 214.21 -30.77 Q 217.19 -28.93 218.97 -25.26 Q 220.75 -21.58 220.75 -16.05 L 220.75 -16.05 Q 220.75 -10.66 219.02 -6.97 Q 217.29 -3.27 214.33 -1.37 Q 211.36 0.52 207.69 0.52 L 207.69 0.52 Q 205.1 0.52 203.28 -0.34 Q 201.47 -1.19 200.32 -2.5 Q 199.17 -3.81 198.56 -5.15 L 198.56 -5.15 L 198.29 -5.15 L 198.29 12.07 Z M 198.1 -16.09 L 198.1 -16.09 Q 198.1 -13.22 198.89 -11.08 Q 199.69 -8.95 201.2 -7.76 Q 202.71 -6.58 204.87 -6.58 L 204.87 -6.58 Q 207.04 -6.58 208.55 -7.78 Q 210.06 -8.99 210.85 -11.14 Q 211.63 -13.28 211.63 -16.09 L 211.63 -16.09 Q 211.63 -18.88 210.86 -20.99 Q 210.08 -23.11 208.57 -24.3 Q 207.07 -25.5 204.87 -25.5 L 204.87 -25.5 Q 202.69 -25.5 201.19 -24.35 Q 199.69 -23.19 198.89 -21.08 Q 198.1 -18.96 198.1 -16.09 Z M 247.31 -13.7 L 247.31 -13.7 L 247.31 -32.18 L 256.24 -32.18 L 256.24 0 L 247.67 0 L 247.67 -5.85 L 247.33 -5.85 Q 246.25 -3.02 243.72 -1.3 Q 241.2 0.42 237.57 0.42 L 237.57 0.42 Q 234.34 0.42 231.89 -1.05 Q 229.44 -2.51 228.07 -5.22 Q 226.7 -7.92 226.68 -11.69 L 226.68 -11.69 L 226.68 -32.18 L 235.6 -32.18 L 235.6 -13.28 Q 235.62 -10.43 237.13 -8.78 Q 238.64 -7.12 241.18 -7.12 L 241.18 -7.12 Q 242.79 -7.12 244.19 -7.87 Q 245.6 -8.61 246.47 -10.08 Q 247.33 -11.54 247.31 -13.7 Z M 263.36 -42.91 L 272.29 -42.91 L 272.29 0 L 263.36 0 L 263.36 -42.91 Z M 306.19 -23 L 306.19 -23 L 298.02 -22.5 Q 297.81 -23.55 297.12 -24.4 Q 296.42 -25.25 295.3 -25.76 Q 294.18 -26.27 292.63 -26.27 L 292.63 -26.27 Q 290.56 -26.27 289.13 -25.4 Q 287.71 -24.53 287.71 -23.09 L 287.71 -23.09 Q 287.71 -21.94 288.63 -21.14 Q 289.55 -20.34 291.79 -19.86 L 291.79 -19.86 L 297.62 -18.69 Q 302.31 -17.73 304.62 -15.59 Q 306.92 -13.45 306.92 -9.97 L 306.92 -9.97 Q 306.92 -6.81 305.07 -4.42 Q 303.21 -2.03 300 -0.7 Q 296.78 0.63 292.59 0.63 L 292.59 0.63 Q 286.2 0.63 282.42 -2.04 Q 278.64 -4.71 277.99 -9.32 L 277.99 -9.32 L 286.77 -9.78 Q 287.16 -7.84 288.69 -6.82 Q 290.22 -5.8 292.61 -5.8 L 292.61 -5.8 Q 294.96 -5.8 296.39 -6.72 Q 297.83 -7.63 297.85 -9.07 L 297.85 -9.07 Q 297.83 -10.29 296.82 -11.07 Q 295.82 -11.86 293.72 -12.28 L 293.72 -12.28 L 288.15 -13.39 Q 283.43 -14.33 281.14 -16.66 Q 278.85 -18.98 278.85 -22.59 L 278.85 -22.59 Q 278.85 -25.69 280.53 -27.93 Q 282.22 -30.17 285.29 -31.39 Q 288.36 -32.6 292.49 -32.6 L 292.49 -32.6 Q 298.58 -32.6 302.09 -30.02 Q 305.6 -27.45 306.19 -23 Z M 327.22 0.63 L 327.22 0.63 Q 322.26 0.63 318.69 -1.39 Q 315.11 -3.42 313.19 -7.13 Q 311.26 -10.85 311.26 -15.94 L 311.26 -15.94 Q 311.26 -20.91 313.19 -24.66 Q 315.11 -28.41 318.62 -30.51 Q 322.13 -32.6 326.87 -32.6 L 326.87 -32.6 Q 330.05 -32.6 332.81 -31.58 Q 335.56 -30.57 337.63 -28.54 Q 339.69 -26.5 340.84 -23.43 Q 341.99 -20.37 341.99 -16.26 L 341.99 -16.26 L 341.99 -13.81 L 314.82 -13.81 L 314.82 -19.34 L 333.59 -19.34 Q 333.59 -21.27 332.75 -22.75 Q 331.92 -24.24 330.44 -25.09 Q 328.96 -25.94 327.01 -25.94 L 327.01 -25.94 Q 324.98 -25.94 323.42 -25.01 Q 321.86 -24.07 320.98 -22.51 Q 320.1 -20.95 320.08 -19.05 L 320.08 -19.05 L 320.08 -13.79 Q 320.08 -11.4 320.97 -9.66 Q 321.86 -7.92 323.49 -6.98 Q 325.13 -6.03 327.37 -6.03 L 327.37 -6.03 Q 328.86 -6.03 330.09 -6.45 Q 331.33 -6.87 332.21 -7.71 Q 333.09 -8.55 333.55 -9.76 L 333.55 -9.76 L 341.81 -9.22 Q 341.18 -6.24 339.24 -4.03 Q 337.3 -1.82 334.25 -0.6 Q 331.2 0.63 327.22 0.63 Z" stroke-linecap="round" />
</g>
</g>
</g>
</svg>